PathFileType	4	(X/Y/Z)	HSS_walk2.trc
DataRate	CameraRate	NumFrames	NumMarkers	Units	OrigDataRate	OrigDataStartFrame	OrigNumFrames
120.0	120.0	4	44	mm	120.0	493	984
Frame#	Time		R.Shoulder		Offset		L.Shoulder		R.Elbow		R.Wrist.Radial		R.Wrist		R.Hand		L.Elbow		L.Wrist.Radial		L.Wrist		L.Hand		R.Hip		V.Sacral		L.PSIS		L.Hip		R.Thigh.Upper		R.Thigh.Front		R.Thigh.Rear		X.Shell.Lower.Thigh.Right		R.Knee.Lateral		R.Shank.Upper		R.Shank.Front		R.Shank.Rear		X.Shell.Lower.Shank.Right		R.Ankle.Lateral		R.Heel		R.Toe		L.Thigh.Upper		L.Thigh.Front		L.Thigh.Rear		X.Shell.Lower.Thigh.Left		L.Knee.Lateral		L.Shank.Upper		L.Shank.Front		L.Shank.Rear		X.Shell.Lower.Shank.Left		L.Ankle.Lateral		L.Heel		L.Toe		R.Troc		L.Troc		R.PSIS		L.ASIS		R.ASIS
			X1	Y1	Z1	X2	Y2	Z2	X3	Y3	Z3	X4	Y4	Z4	X5	Y5	Z5	X6	Y6	Z6	X7	Y7	Z7	X8	Y8	Z8	X9	Y9	Z9	X10	Y10	Z10	X11	Y11	Z11	X12	Y12	Z12	X13	Y13	Z13	X14	Y14	Z14	X15	Y15	Z15	X16	Y16	Z16	X17	Y17	Z17	X18	Y18	Z18	X19	Y19	Z19	X20	Y20	Z20	X21	Y21	Z21	X22	Y22	Z22	X23	Y23	Z23	X24	Y24	Z24	X25	Y25	Z25	X26	Y26	Z26	X27	Y27	Z27	X28	Y28	Z28	X29	Y29	Z29	X30	Y30	Z30	X31	Y31	Z31	X32	Y32	Z32	X33	Y33	Z33	X34	Y34	Z34	X35	Y35	Z35	X36	Y36	Z36	X37	Y37	Z37	X38	Y38	Z38	X39	Y39	Z39	X40	Y40	Z40	X41	Y41	Z41	X42	Y42	Z42	X43	Y43	Z43	X44	Y44	Z44

493	4.10000	-1135.00708	1460.84729	-28.91714	-1244.20886	1387.81299	-316.27441	-1117.79309	1486.72229	-395.58224	-1210.67224	1102.41980	0.33592	-1106.61682	867.28589	6.51156	-1150.34448	866.09991	65.79806	-1115.74231	785.20801	60.66062	-1164.39648	1128.19556	-469.72684	-1042.67053	920.20520	-521.38190	-1008.30957	919.72455	-457.67786	-992.54321	849.13104	-509.40063	-1118.10706	1029.80005	-82.55497	-1242.60522	1010.68475	-226.70026	-1242.13025	1014.91022	-267.07166	-1124.62415	1017.69482	-378.52289	-1023.24139	693.56964	-58.38089	-985.40106	663.14331	-78.59678	-1039.42883	651.55048	-50.42908	-1007.90222	624.51196	-71.49129	-1055.56543	509.62817	-89.88531	-1069.44006	357.61478	-51.39119	-1046.74634	314.50177	-79.91010	-1104.19568	323.81073	-63.41888	-1084.56018	283.30609	-77.01506	-1116.13782	66.29942	-137.48805	-1162.47900	31.63140	-186.96407	-963.71899	30.65159	-142.41280	-1050.80884	671.12067	-401.37686	-1020.28998	625.05035	-385.41205	-1077.31189	631.47870	-412.20102	-1044.83337	600.79163	-406.54785	-1101.36853	485.73886	-384.23456	-1270.13037	383.22656	-401.70267	-1268.81543	344.59607	-390.24411	-1315.74524	380.69312	-378.66678	-1326.20081	343.87598	-383.95154	-1441.73193	228.88284	-332.11261	-1479.62573	250.87859	-263.93890	-1427.49084	81.75761	-345.12802	-1091.44702	877.20978	-46.99165	-1123.26074	863.72717	-403.06006	-1240.23376	1021.20410	-181.65555	-1063.62512	977.58557	-338.65845	-1057.64258	993.21198	-116.26253
494	4.10833	-1126.35962	1461.23401	-27.82111	-1237.14124	1388.65100	-314.45322	-1111.05615	1487.18494	-394.78195	-1198.88098	1101.89966	3.12836	-1090.81445	868.68604	6.97905	-1133.21924	866.52130	66.84673	-1096.54150	786.68585	61.31511	-1160.67017	1129.20654	-468.01407	-1042.62207	919.68817	-521.63312	-1007.48682	918.39246	-458.49225	-993.24353	847.87146	-510.51617	-1110.13855	1029.85498	-81.44890	-1235.46936	1011.09253	-225.65009	-1234.73560	1015.52240	-266.01068	-1119.43250	1018.79553	-378.18021	-1017.97992	692.79681	-57.95570	-980.26764	662.12701	-78.04226	-1034.68713	650.98016	-50.17756	-1003.31934	623.70166	-70.89801	-1051.71924	509.26971	-89.69218	-1066.27393	357.19849	-51.36102	-1044.09729	313.85458	-80.23742	-1101.35559	323.90051	-62.87479	-1082.08289	283.06604	-76.89531	-1115.98499	66.26142	-137.54736	-1162.50488	31.73407	-186.92191	-963.66870	30.58610	-142.44943	-1037.05298	673.98187	-401.16458	-1005.62781	628.41827	-385.29932	-1062.56470	633.67609	-411.90210	-1029.64661	603.72839	-406.13010	-1083.87097	487.76334	-383.78134	-1252.72339	385.34656	-400.12927	-1250.75610	346.44421	-388.46820	-1297.77673	382.32791	-375.72836	-1308.15320	345.54156	-381.57193	-1422.44934	230.64735	-330.01440	-1461.23083	249.69817	-261.84430	-1403.17371	83.90883	-346.64410	-1084.81494	876.94000	-46.21541	-1114.27014	864.92670	-401.81506	-1232.93909	1021.47571	-180.45596	-1056.40930	978.72101	-337.46460	-1051.03674	993.50427	-115.75368
495	4.11667	-1117.86169	1461.93237	-26.75615	-1230.21143	1389.37073	-312.57901	-1104.34900	1487.84802	-393.82544	-1186.94983	1101.47632	5.86627	-1073.24023	870.37231	7.32307	-1115.02710	867.07153	67.64288	-1077.10620	788.40704	62.16680	-1157.00647	1130.27283	-466.35495	-1042.71338	919.39960	-521.84790	-1007.09882	917.35431	-459.01718	-994.21582	846.84943	-511.84488	-1102.91406	1030.24097	-80.40202	-1228.00513	1011.34790	-224.51839	-1227.42407	1016.05017	-264.92178	-1109.91748	1020.02002	-376.44980	-1013.05249	692.16260	-57.19696	-975.51556	661.05481	-77.05925	-1030.13220	650.42725	-49.82108	-998.83478	622.97650	-70.32669	-1047.81482	508.72375	-89.58111	-1063.47888	356.74860	-50.99227	-1041.72131	313.34555	-79.94329	-1098.81262	323.76559	-62.44891	-1079.82874	282.73596	-76.58595	-1115.81311	66.30860	-137.54918	-1162.49500	31.90293	-186.88559	-963.58740	30.49448	-142.48779	-1023.41772	676.88092	-400.86401	-991.01984	632.17218	-384.88071	-1047.96057	636.21082	-412.04797	-1014.30127	606.89972	-405.93668	-1066.44397	489.89163	-383.49420	-1234.81409	386.97040	-397.92062	-1232.35669	347.80301	-387.04617	-1279.42517	383.33792	-372.86774	-1289.71680	346.52631	-379.37332	-1402.37378	230.81599	-328.15988	-1442.32458	247.60840	-259.98181	-1378.13635	85.21198	-347.75732	-1083.13879	876.61475	-44.06151	-1105.50439	866.39948	-400.97845	-1225.55017	1021.62518	-179.36462	-1048.27515	979.67523	-336.72482	-1043.77332	993.65729	-114.67014
496	4.12500	-1109.33960	1462.44312	-25.74439	-1223.16187	1390.00183	-310.76791	-1097.65808	1488.46533	-392.84293	-1175.03503	1101.04761	8.48878	-1056.37512	872.29034	7.81142	-1097.79431	867.86072	68.60516	-1057.49597	790.31659	62.82435	-1153.30603	1131.39600	-464.77524	-1042.95984	919.09784	-522.01575	-1006.86749	916.18329	-459.99182	-995.27203	846.01782	-512.87598	-1095.20654	1030.29529	-79.48794	-1220.96240	1011.58582	-223.51611	-1220.06665	1016.56323	-263.81229	-1102.48022	1021.05963	-375.29498	-1008.05310	691.41699	-56.57071	-970.65869	659.95380	-75.99622	-1025.50647	649.81580	-49.32793	-994.36420	622.01257	-69.85880	-1044.09424	508.31055	-89.22906	-1060.87964	356.48740	-51.06197	-1039.42920	312.94281	-79.76884	-1096.51379	323.68802	-62.44713	-1077.79834	282.51004	-76.46293	-1115.68787	66.32397	-137.62671	-1162.48608	32.01834	-186.88776	-963.49005	30.40157	-142.51051	-1009.76727	680.20605	-400.77396	-976.34113	636.02771	-384.41187	-1033.47974	638.88220	-411.96014	-999.16858	610.27777	-405.85846	-1049.19751	492.09479	-382.89050	-1216.41455	387.98102	-395.90311	-1213.72156	348.78680	-385.48602	-1260.97156	383.61331	-370.28113	-1271.00964	346.86700	-377.22391	-1381.65735	229.41142	-326.92972	-1423.01892	244.48734	-258.20309	-1352.46362	85.87793	-348.59012	-1073.44934	876.34296	-43.24548	-1096.57190	868.11243	-400.33539	-1218.22961	1021.72089	-178.38008	-1040.74426	980.69189	-335.42508	-1036.22083	993.74487	-113.39806
